Fritz the Cat (1972)

Director: Ralph Bakshi

Fritz the Cat is a 1972 American animated film written and directed by Ralph Bakshi as his feature film debut. Based on the comic strip of the same name by Robert Crumb, the film was the first animated feature film to receive an X rating in the United States. It focuses on Fritz (voiced by Skip Hinnant), an anthropomorphic feline in mid-1960s New York City who explores the ideals of hedonism and sociopolitical consciousness. The film is a satire focusing on American college life of the era, race relations, the free love movement, and left- and right-wing politics. Fritz the Cat is the most successful independent animated feature of all time, grossing over $100 million worldwide.

After Bakshi graduated from High School of Art and Design, he worked on cartoon shorts for Terrytoon Studios for ten years and eventually started up his own animation studio. However, Bakshi was uninterested in the kind of animation he was producing, and wanted to produce something personal. He soon developed Heavy Traffic, a tale of inner-city street life. However, producer Steve Krantz told Bakshi that studio executives would be unwilling to fund the film because of its content and Bakshi's lack of film experience.[1] Later, Bakshi came across a copy of Fritz the Cat while browsing a bookstore. Impressed by Crumb's satire, Bakshi suggested to Krantz that it could be worked into a film.

The film had a troubled production history and controversial release. Crumb is known to have had disagreements with the filmmakers, claiming in interviews that his first wife signed over the film rights to the characters, and that he did not approve the production. Crumb was also critical of the film's approach to his material. Fritz the Cat was controversial for its rating and content, which many viewers at the time found to be offensive. Its success led to a slew of other X-rated animated films, and a sequel, The Nine Lives of Fritz the Cat, was made without Crumb's or Bakshi's involvement.

Media Info:
General
Complete name                    : J:\Seeding\Fritz the Cat (1972)[DVDRip][big_dad_e™]\Fritz the Cat (1972)[DVDRip][big_dad_e™].AVI
Format                           : AVI
Format/Info                      : Audio Video Interleave
File size                        : 1.00 GiB
Duration                         : 1h 18mn
Overall bit rate                 : 1 833 Kbps

Video
ID                               : 0
Format                           : MPEG-4 Visual
Format profile                   : Simple@L3
Format settings, BVOP            : No
Format settings, QPel            : No
Format settings, GMC             : No warppoints
Format settings, Matrix          : Default (H.263)
Codec ID                         : XVID
Codec ID/Hint                    : XviD
Duration                         : 1h 18mn
Bit rate                         : 1 500 Kbps
Width                            : 716 pixels
Height                           : 464 pixels
Display aspect ratio             : 16:9
Frame rate                       : 23.976 fps
Color space                      : YUV
Chroma subsampling               : 4:2:0
Bit depth                        : 8 bits
Scan type                        : Progressive
Bits/(Pixel*Frame)               : 0.188
Stream size                      : 841 MiB (82%)
Writing library                  : XviD 

Audio
ID                               : 1
Format                           : MPEG Audio
Format version                   : Version 1
Format profile                   : Layer 3
Mode                             : Joint stereo
Mode extension                   : MS Stereo
Codec ID                         : 55
Codec ID/Hint                    : MP3
Duration                         : 1h 18mn
Bit rate mode                    : Constant
Bit rate                         : 320 Kbps
Channel(s)                       : 2 channels
Sampling rate                    : 48.0 KHz
Stream size                      : 179 MiB (17%)
Alignment                        : Split accross interleaves
Interleave, duration             : 24 ms (0.58 video frame)
Interleave, preload duration     : 47 ms
Writing library                  : LAME3.98

File Scan:
Malwarebytes' Anti-Malware 1.50.1.1100
www.malwarebytes.org

Database version: 5873
2/24/2011 8:48:13 PM
mbam-log-2011-02-24 (20-48-13).txt

Scan type: Quick scan
Objects scanned: 5
Time elapsed: 38 second(s)

Memory Processes Infected: 0
Memory Modules Infected: 0
Registry Keys Infected: 0
Registry Values Infected: 0
Registry Data Items Infected: 0
Folders Infected: 0
Files Infected: 0

Memory Processes Infected:
(No malicious items detected)

Memory Modules Infected:
(No malicious items detected)

Registry Keys Infected:
(No malicious items detected)

Registry Values Infected:
(No malicious items detected)

Registry Data Items Infected:
(No malicious items detected)

Folders Infected:
(No malicious items detected)

Files Infected:
(No malicious items detected)

When using TPB please read these important notes:
  
01- Anti-malware apps may warn about keygens, patches, cracks, etc., because of 
    their capabilities, (generating codes, etc.). Sometimes they're added to 
    the virus/spyware database and will be detected as malware. If you don't trust
    the keygens, patches, cracks, etc., don't use them. 
    
02- Before running .exe-files, keygens, patches, cracks, etc., always check first 
    if they can be unpacked. Often some third party added a virus to the 
    original file, repacked it and uploaded it again.

03- Letting anti-malware apps send scan results to their companies can cause
    keygens, patches, cracks, etc., to be added to their virus-database.

04- Firewalls which are set to automatically determine connections will allow 
    apps & malware!. Avoid this by manually configuring your firewall.

05- Usually (new) torrents with many downloads and seeders in a brief period is
    suspicious! Torrents with the Skull & Crossbones icon are trusted.

06- Some people use multiple accounts and post fake comments 
    and/or files trying to spread confusion. They seldom seriously
    comment or have any torrents, or a just a few to look passable.

07- Clicking on unknown links can cause malware to be installed on your machine.
  
08- In general often there are more fake and negative comments than reliable and
    positive comments.

09- In some countries uploading/downloading copyright protected material is 
    forbidden, but showing some appreciation to reliable up-loaders is not.

10- Posting fake and negative comments or fake/infected uploads on TPB can result
    in getting banned from TPB!

Requests?  Find me on SuprBay. http://forum.suprbay.org
 

For reporting bad or suspicious torrents:  
http://forum.suprbay.org/forumdisplay.php?fid=29

For more of my torrents: 
https://thepiratebay.org/user/big_dad_e/  (Secured)

All torrents scanned with:
Norton Anti-virus
Malwarebytes' Anti-malware
 
http://www.pirate-party.us/

ALWAYS SEED & THANKS SEEDERS!